<svg width="22" height="23" viewBox="0 0 22 23" fill="none" xmlns="http://www.w3.org/2000/svg">
<path d="M16.6531 11.598C16.6531 14.8289 14.034 17.448 10.8031 17.448C7.57226 17.448 4.95312 14.8289 4.95312 11.598C4.95312 8.36718 7.57226 5.74805 10.8031 5.74805C14.034 5.74805 16.6531 8.36718 16.6531 11.598Z" fill="#7C8497" stroke="#7C8497" stroke-width="1.5" stroke-linecap="round" stroke-linejoin="round"/>
<path d="M17.2229 18.0256L17.1059 17.9086M17.1059 5.29061L17.2229 5.17361L17.1059 5.29061ZM4.37087 18.0256L4.48787 17.9086L4.37087 18.0256ZM10.7969 2.67161V2.59961V2.67161ZM10.7969 20.5996V20.5276V20.5996ZM1.86887 11.5996H1.79688H1.86887ZM19.7969 11.5996H19.7249H19.7969ZM4.48787 5.29061L4.37087 5.17361L4.48787 5.29061Z" stroke="#7C8497" stroke-width="1.5" stroke-linecap="round" stroke-linejoin="round"/>
</svg>
