<svg width="75" height="100" viewBox="0 0 75 100" fill="none" xmlns="http://www.w3.org/2000/svg">
<path d="M72.3558 68.3048C65.0102 97.7694 35.1673 115.701 5.69924 108.353C-23.7565 101.008 -41.688 71.163 -34.3392 41.7009C-26.9967 12.233 2.8461 -5.69986 32.305 1.64579C61.771 8.99144 79.7014 38.8394 72.355 68.3053L72.3555 68.3048H72.3558Z" fill="#FFB41A"/>
<path d="M43.2581 47.1638C44.3528 39.8445 38.7804 35.9101 31.1605 33.2855L33.6325 23.3708L27.5971 21.867L25.1908 31.5206C23.6041 31.1248 21.9747 30.752 20.3552 30.3823L22.7791 20.665L16.7475 19.1611L14.2742 29.0725C12.9612 28.7736 11.6716 28.4781 10.4204 28.1668L10.4274 28.1356L2.10457 26.0573L0.499083 32.5034C0.499083 32.5034 4.9768 33.5298 4.88244 33.593C7.32642 34.203 7.76838 35.8208 7.69499 37.1032L4.87921 48.3983C5.0475 48.441 5.2658 48.5029 5.50667 48.5996C5.30532 48.5496 5.09106 48.4951 4.86873 48.4418L0.92196 64.2646C0.623284 65.0072 -0.13483 66.1215 -1.84355 65.6983C-1.78306 65.786 -6.23012 64.6037 -6.23012 64.6037L-9.22656 71.5122L-1.37255 73.4701C0.0885721 73.8365 1.52039 74.2199 2.93043 74.5804L0.432951 84.6087L6.46131 86.1126L8.93459 76.1907C10.5815 76.6378 12.1797 77.0502 13.7443 77.4389L11.2794 87.314L17.315 88.8179L19.8122 78.8084C30.1037 80.7561 37.8422 79.9708 41.0994 70.6621C43.724 63.1675 40.9687 58.8447 35.5544 56.0257C39.4979 55.1162 42.4683 52.5225 43.2603 47.1646L43.2584 47.1633L43.2581 47.1638ZM29.4687 66.5C27.6036 73.9946 14.985 69.9432 10.8939 68.9273L14.2081 55.6415C18.2989 56.6628 31.4181 58.6839 29.469 66.5H29.4687ZM31.3353 47.0552C29.6338 53.8723 19.1312 50.4089 15.7243 49.5596L18.7291 37.5102C22.136 38.3594 33.1077 39.9445 31.3358 47.0552H31.3353Z" fill="#F3F3F3"/>
</svg>
